<svg xmlns="http://www.w3.org/2000/svg" viewBox="0 0 32 32"><g fill="#fff" class="color000000 svgShape" data-name="Layer 2"><path d="M25.86133,29.3501H16C8.28027,29.3501,2,23.36133,2,16S8.28027,2.6499,16,2.6499,30,8.63867,30,16a12.8948,12.8948,0,0,1-3.31592,8.62012l.80371.80371a2.3,2.3,0,0,1-1.62646,3.92627ZM16,4.6499C9.3833,4.6499,4,9.7417,4,16S9.3833,27.3501,16,27.3501h9.86133a.30007.30007,0,0,0,.2124-.51221l-1.4956-1.49512a.99977.99977,0,0,1,.01074-1.4248A10.97825,10.97825,0,0,0,28,16C28,9.7417,22.6167,4.6499,16,4.6499Z" class="color000000 svgShape"/><path d="M17.5,22h-3a1,1,0,0,1,0-2h3a1,1,0,0,1,0,2Z" class="color000000 svgShape"/><path d="M16,22a1,1,0,0,1-1-1V14.86621A1.00012,1.00012,0,0,1,15.5,13H16a1,1,0,0,1,1,1v7A1,1,0,0,1,16,22Z" class="color000000 svgShape"/><circle cx="16" cy="10" r="1.5" class="color000000 svgShape"/></g></svg>