<svg xmlns="http://www.w3.org/2000/svg" viewBox="0 0 8.467 8.467"><path d="m 4.2333333,289.0625 c -2.0426174,0 -3.70416665,1.66155 -3.70416665,3.70416 0,2.04262 1.66154925,3.70417 3.70416665,3.70417 2.0426175,0 3.7041667,-1.66155 3.7041667,-3.70417 0,-2.04261 -1.6615492,-3.70416 -3.7041667,-3.70416 z m -0.7100342,0.61133 c -0.3758639,0.43983 -0.6734053,0.94883 -0.870231,1.50533 H 1.4851806 c 0.4344202,-0.75168 1.1666516,-1.30679 2.0381185,-1.50533 z m 1.4205852,5.3e-4 c 0.8711967,0.19866 1.603284,0.75331 2.0376018,1.50482 H 5.8135986 c -0.196754,-0.55624 -0.4940792,-1.06515 -0.8697143,-1.50482 z m -0.710551,0.0258 c 0.4346409,0.41255 0.7799441,0.91473 1.008724,1.47898 H 3.2246094 c 0.2287945,-0.56424 0.5740622,-1.06643 1.0087239,-1.47898 z m -2.991032,2.00815 h 1.2572878 c -0.077347,0.34047 -0.1183391,0.69485 -0.1183391,1.05833 0,0.36362 0.040952,0.7178 0.1183391,1.05834 H 1.2423013 c -0.1169186,-0.33136 -0.183968,-0.6864 -0.183968,-1.05834 0,-0.37193 0.067049,-0.72698 0.183968,-1.05833 z m 1.8060914,0 H 5.418274 c 0.087208,0.33863 0.137976,0.69204 0.137976,1.05833 0,0.3663 -0.050768,0.71976 -0.137976,1.05834 H 3.0483927 c -0.087239,-0.33864 -0.137976,-0.69197 -0.137976,-1.05834 0,-0.36626 0.050779,-0.71973 0.137976,-1.05833 z m 2.9186849,0 h 1.2572878 c 0.1169186,0.33135 0.183968,0.6864 0.183968,1.05833 0,0.37194 -0.067049,0.72698 -0.183968,1.05834 H 5.9670776 c 0.077366,-0.34048 0.1183391,-0.69479 0.1183391,-1.05834 0,-0.36354 -0.040973,-0.7178 -0.1183391,-1.05833 z m -4.481897,2.64583 h 1.1678875 c 0.196855,0.55637 0.4943496,1.06562 0.870231,1.50534 -0.8714669,-0.19854 -1.6036983,-0.75365 -2.0381185,-1.50534 z m 1.7394288,0 h 2.0174479 c -0.2287799,0.56413 -0.5740831,1.06596 -1.008724,1.47847 -0.4345357,-0.41244 -0.7799572,-0.91446 -1.0087239,-1.47847 z m 2.5889892,0 h 1.1678875 c -0.4344202,0.75169 -1.1666516,1.3068 -2.0381185,1.50534 0.3759809,-0.4398 0.6733492,-0.94884 0.870231,-1.50534 z" color="#000" font-family="sans-serif" font-weight="400" overflow="visible" transform="translate(0 -288.533)" style="line-height:normal;font-variant-ligatures:normal;font-variant-position:normal;font-variant-caps:normal;font-variant-numeric:normal;font-variant-alternates:normal;font-feature-settings:normal;text-indent:0;text-align:start;text-decoration-line:none;text-decoration-style:solid;text-decoration-color:#000;text-transform:none;text-orientation:mixed;shape-padding:0;isolation:auto;mix-blend-mode:normal" fill="#fff" class="color000000 svgShape"/></svg>