<svg xmlns="http://www.w3.org/2000/svg" viewBox="0 0 40 40" id="wordpress">
  <path fill="#231f20" d="m16.2 25.65-5.11-11.54a1 1 0 0 0-1.83.81l6.09 13.74a1 1 0 0 0 .92.59 1 1 0 0 0 .91-.63l3.05-7.91 3.52 8.16a1 1 0 0 0 .92.61 1 1 0 0 0 .92-.64l4.87-12.52a1 1 0 0 0-.11-.93l-2.21-3.21a1 1 0 0 0-1.65 1.13l1.92 2.78-3.8 9.75-5.21-12.16a1 1 0 0 0-1.83.79l1.56 3.63Z"></path>
  <path fill="#231f20" d="M35.78 18.44a1 1 0 0 0-1 1 15.13 15.13 0 1 1-1.64-6.85 1 1 0 0 0 1.78-.91 17.14 17.14 0 1 0 1.86 7.76 1 1 0 0 0-1-1Z"></path>
  <circle cx="35.21" cy="15.19" r="1.01" fill="#231f20"></circle>
</svg>
